<svg id="Ebene_1" data-name="Ebene 1" xmlns="http://www.w3.org/2000/svg" viewBox="0 0 722.24 957.37"><defs><style>.cls-1{fill:none;stroke:#1d1d1b;stroke-miterlimit:10;}</style></defs><path class="cls-1" d="M754,172.57c4.51,4.43,4.54,12.28,4.53,13.58-.06,5.28-2,8,0,11.76a33.64,33.64,0,0,1,2.3,3.92c1.07,2.41.84,3.2,1.76,6.09.27.86,1.13,2.75,2.84,6.49s2.48,5.44,2.7,5.82c1.82,3.06,3.12,4,2.84,5.68-.07.49-.17.39-1.62,3a28.48,28.48,0,0,1-1.89,3.38c-1.48,1.85-2.42,1.53-3,2.85s-.05,2.87.54,4.46c.92,2.49,1.8,2.81,2.3,4.19,1,2.7-.9,5.62-3.11,9.07a44,44,0,0,1-8.12,9.2c-1.5,1.26-2.44,2.2-4.33,4.06s-2.33,2.45-2.57,3.11c-.52,1.42,0,2,.14,5.68.1,2.94-.21,2.94.13,3.93.27.78.75,1.63,3.79,4.33,1.62,1.44,2.91,2.47,3.38,2.84,3.35,2.65,4.25,3.06,6.36,4.87.79.68,1.46,1.29,3.65,3.52,8,8.08,7.55,8.34,9.34,9.33,4.29,2.4,5.76.3,9.34,3,2.67,2,5.16,5.67,4.33,8.52-.46,1.56-1.48,1.42-2.17,3.25-1.13,3,1.2,4.42.54,7.44-.74,3.43-4.15,3.52-4.73,7-.22,1.31.17,1.77,1.08,5,1.93,6.9.84,7.37,2.16,9.74,2.36,4.21,5.69,2.51,8.39,6.76,1.34,2.11,1.66,4.92,2.3,10.56.49,4.26.14,4.92.95,7,1.53,4,3.67,3.89,4.19,6.77.59,3.2-1.94,3.95-2.7,9.06-.72,4.79,1.31,5.41.13,8.39-1.57,4-5.66,4-6.76,8.12a9,9,0,0,0,.27,4.73c.41,1.74,1.49,5,9.47,14.21,2,2.28,3.1,3.45,3.52,5.55.08.4.74,4-1.35,6.63-1.5,1.88-3.07,1.63-3.52,3-.85,2.54,3.83,6.19,4.06,6.36,6.28,4.81,11.35,1.61,14.34,5.42,2.21,2.82,0,5.26,2.57,11.23a22.4,22.4,0,0,0,3.79,5.81c7.88,9.62,5.14,54.9-12.86,60.48-2.75.86-8.27,1.53-11.5-1.35-2-1.79-1.61-3.61-4.6-10.42-1.89-4.31-2.83-6.47-4.46-7.84-4.65-3.92-11.4-2.44-13-2-1,.25-7.75,2-8.12,5.41-.46,4.27,9.53,6.24,9.34,10-.28,5.4-20.86,2.91-34.51,16.78-3.56,3.62-4.42,6.09-8.65,8.12-8.4,4-14.76-1-19.62,3.24-4.47,3.92-1.62,10.38-6.09,12.59-3.93,1.94-9.29-1.48-11.37,1.21-.81,1.06-.33,2-1.35,2.85-1.77,1.41-4.12-.76-6.36.13-2.84,1.12-1.32,5.46-4.19,8.66-3.78,4.2-9.75.49-13.67,4.6-3.36,3.53-1.29,8.69-3.92,9.74s-4.67-4-9.61-4.33c-4.62-.28-6,4-12.72,6.36-6.25,2.2-8-.41-12.18,1.08C625,596.8,625.45,622.33,621,622.22c-1.29,0-3-3.32-6.5-9.88-1.94-3.69-2.69-5.67-5-6.77-1.89-.89-4.83-1.2-6.5.41-1.27,1.24-1.24,3.08-1.21,4.6,0,.81.08,4.62,2.7,6.63,1.83,1.4,3,.43,4.2,1.62,2,2-.17,5.35.94,9.47.75,2.76,2.57,4.27,6.23,7.31,4.27,3.55,6,3.33,13,8.25a23.14,23.14,0,0,1,5.54,4.87c1.34,1.72,3.44,4.4,3.25,7.72-.14,2.49-1.5,4.19-3.65,6.9-3.37,4.23-5.85,4.85-6.63,8.25a8.15,8.15,0,0,0,0,3.65c.35,1.45,1.08,2.52,3.25,4.88,3.59,3.91,3.73,3.31,5,5.14a22.29,22.29,0,0,1,3,6.36c.47,1.8.34,2.46,1.08,3.65,1,1.55,1.95,1.67,3.38,3.25a11.25,11.25,0,0,1,2.3,3.92c1.23,3.46-.25,4.91,1.22,7.44a9,9,0,0,0,2.71,2.71c2.23,1.66,3.43,1.48,5,2.57,2.41,1.66,2.33,4,3.52,5.82,3.06,4.8,10.72.85,17.46,4.06,10.19,4.85,6.92,20.71,17.45,24.62,4.16,1.55,5.07-.78,8.79,1.08,8.35,4.17,5.73,16.83,13.13,19.89,4.34,1.8,6.6-2,12,.14,3.44,1.35,4.84,3.77,9.2,9.74,9.29,12.73,9.73,11,11.16,14.52,4.28,10.47.47,25.8-6.92,28.45-7.06,2.54-13.81-7.76-19-4.8-4.82,2.73-.07,12.08-6,23.07-3.52,6.58-8.91,10.11-14,13.46-10.52,6.89-14.64,4.58-24.62,11.15-6.53,4.31-14,9.23-14.22,15.77-.37,11,20.25,15.21,20,27.11-.16,7.67-8.86,12.52-6.73,16.15,1.79,3,8-.13,12.31,3.08,7.89,5.83,3.57,28.17-1.92,29-4.13.65-9.4-10.75-22.69-22.88-1.46-1.33-3.78-3.37-6.54-3.07-4.18.44-4.64,5.75-9.81,7.49-3.92,1.33-7.87-.31-10.38-1.34-5.24-2.16-5.1-4.57-9.81-6.54-4.05-1.7-10.7-2.66-13.46.39-3,3.36,1.48,8.49-1.15,12.11-2.38,3.26-8.18,2-24,.58-17.16-1.53-22-1.07-24,1.92-2.18,3.19.45,6.82-2.11,9.23-3.15,3-8-1.63-13.27.77-6.67,3.05-5.75,13.69-10.77,14.42-2.75.4-3.4-2.76-7.69-3.27-5-.6-6.35,3.48-11.54,3.65-5.54.18-11.73-4.24-13.46-9.42-1.46-4.36.8-7.61-1-8.84-2.33-1.64-6.23,4.07-11.92,3.26-5.27-.74-7.55-6.43-10.19-5.38-2.05.82-1.16,4.43-3.46,5.58-3,1.49-6.74-3.5-9.23-2.31s-.44,7.12-1.54,12.88c-2.67,14-23,21.34-23.65,20.4-.32-.43,3.49-2.57,4.42-7.32.51-2.58.17-6-1.34-6.54-1.84-.72-3.68,3.33-6.54,2.88s-4.21-4.73-4.42-5.38c-1-3.16.13-4.24-.39-7.11a13.31,13.31,0,0,0-8.46-9.62c-4.91-1.58-7.84,1.75-11.34-.57-2.65-1.76-2.13-4.42-4.43-5.2-3-1-5,3-8.65,3.66-6.18,1.07-8.64-8.94-18.46-14.42-9.22-5.15-21.91-4.62-30.76-1.54-7.68,2.67-12.47,7.25-16,5s-2.23-9.06-5.19-9.81c-2.41-.61-4.26,3.63-6.73,3.08-3-.67-1.72-7.16-5.39-10.19-5.57-4.61-20.53.41-21.92,7.3-.46,2.29.47,5.33,2.31,6.16,2.6,1.16,5.18-2.91,8.27-1.93,2.7.86,4.65,5.23,3.46,7.89-1.49,3.31-7.49,3.16-10.77,3.07-7.19-.18-8.32-2.85-14.42-3.46-3.09-.31-3,.36-17.5,3.85-10.47,2.52-14.77,3.2-17.69.77-2-1.65-1.59-3.27-3.27-3.85-4.54-1.56-9.59,9.59-14.61,8.46-2.17-.48-2-2.75-7.11-11.54-4-6.81-4.78-6.74-5.58-9.61-1.61-5.78.39-11,2.12-15.57,3.45-9.09,7.31-10.27,8.26-17.89a33.51,33.51,0,0,0-.19-7.88c-1-10.54-3.85-12.05-2.88-16.54,1.26-5.82,6.41-4.69,10.76-12.3,3-5.24.87-6.31,4-17.5,2.51-8.86,4.21-9.47,5.19-16.15,1.11-7.54-.82-8.3.2-13.27,1.35-6.66,5.59-9.06,17.2-20.34,15.89-15.45,15.91-18.68,15.71-20.15-.87-6.4-10.26-11.52-17.48-12.61-5.43-.82-8.06.88-17.27.22-5.13-.37-7.6-.47-10.4-1.55-2.32-.89-7.28-2.8-9.3-7.3-1.74-3.91.23-6.4-1.32-7.75-2.85-2.49-9,6.27-18.37,6.2-5.9,0-12.49-3.72-25.68-11.07-1.34-.75-4.38-2.47-6.86-1.33-2.82,1.3-2.21,5.08-4,5.53-3.79,1-9.24-15.61-16.15-22.79a8.9,8.9,0,0,1-2.44-4c-.9-3.39,1.22-5,.67-7.08-1.14-4.35-11.37-2.13-15.94-7.53-3.84-4.53-1.78-12.16-.89-15.49,3.77-13.94,15.35-17.18,13.95-23.46-1.21-5.44-10-3.64-18.15-12-8.51-8.73-8.78-21-8.85-24.35,0-2.1-.47-21.14,10.84-28.11,4.9-3,10.24-2.69,10.85-5.75.71-3.62-6.25-6.6-5.4-11,.57-3,4-3.38,3.87-5.41-.21-3.83-12.38-3.94-13.53-8.7-1-4.13,7.6-6.43,7.92-12,.53-9.09-21.84-14.18-21.26-23.39.34-5.33,8.09-7.2,7.35-13-.54-4.2-5.21-7.34-5.8-7.73-4-2.65-7.52-1.9-8.94-4.64a6.26,6.26,0,0,1,0-4.83c3.16-8.57,22.67-8.22,22.66-11.41,0-1.62-5.06-1.64-7-5.6-1.3-2.73-.35-5.71.2-7.35,2.54-7.61,8.39-7.1,12.18-13.92,2.85-5.14,3.93-13.36.57-18.94-2.13-3.55-5.18-4.55-6.57-9.47-.94-3.36.24-3.72-1-6.38-1.46-3.22-3.73-3.91-6.19-8.7-.5-1-.83-1.77-1-2.13-.35-.89-3.84-9.7-.77-12.95s10.29.54,11.6-2.13c.61-1.24,0-4.06,0-4.06h0s4-2.63,6.38-1.73c2,.73,1.17,3.25,3.48,6.18s6.39,5,9.28,3.87c2.34-.89,2.12-3.29,4.83-4.26,2-.71,2.75.36,5.41.39,4.77.05,5.48-3.38,11.21-4.45,3.64-.67,3.7.65,7.54-.19,2-.42,6-1.29,8.31-4.83.59-.87,2.52-3.77,1.55-6.38-1.54-4.16-8.8-3.06-9.86-6.57-.75-2.49,2.18-5.44,4.64-7.93s3.13-2.23,10.83-7.54a99.74,99.74,0,0,0,7.92-6.18A16.14,16.14,0,0,0,212.09,350a21.86,21.86,0,0,0,1-8.7,20,20,0,0,0-2.7-7.74c-1.57-2.89-2.74-3.68-3.67-4.06a5.66,5.66,0,0,0-2.52-.38c-3.14.26-4,3.22-6.18,4.06-5,1.91-14.7-8-13.15-11.21.83-1.71,4.42-.6,5.41-2.71s-2.21-4.39-1.54-7.73a7.19,7.19,0,0,1,3.28-4.26c6.26-3.93,14.46,5.38,19.72,2.52,4.7-2.56.21-11.11,4.83-24.55,3.88-11.27,8.82-10.45,9.67-18.95,1-9.64-4.64-18.32-.77-21.45,1.13-.92,1.75-.28,2.9-1.36,3.11-2.91-.64-8.32,2.32-13.34,1.68-2.86,4.12-3.16,3.86-4.25-.63-2.67-14.94,1.48-19.14-4.44-.68-1-.51-1.39-.38-11.6.1-8.52,0-11,1.54-11.79,2.42-1.22,6,3.34,8.12,1.93,1.62-1.07,1-4.66,1-5-.52-3.12-2.37-3.65-2.51-5.41-.32-3.82,7.75-9,16-10,3.45-.45,6.88,0,13.73,1,7,1,8.09,1.8,12,1.36,1.27-.15,4.2-.87,10.05-2.32,4.89-1.21,5-1.3,6.38-1.55,5.72-1,9.27-1.66,11.21.2s-.14,4.28,2.13,9.08c.21.44.27.5,4.25,6.19,2.2,3.13,3.29,4.71,3.1,5.6-.48,2.17-3.72,1.79-6.38,5-.32.39-2.69,3.33-2.13,5.8,1.26,5.52,17,7.56,18.94,3.86,1-1.9-2-4.51-4.44-13.91-.7-2.75-.73-3.66-.19-4.26,1.3-1.45,4.93.08,15.27,2.32,3.22.7,5.75,1.18,6.57,0,.61-.87.13-2.42-.39-4.06a16.58,16.58,0,0,0-1.54-3.48c-1.94-3.2-1.44-8.27-1.16-11,.78-7.85,5.84-21.52,12.37-21.65,3.05,0,3.25,2.91,8.89,5.8,6.53,3.35,15.63,4.19,18,.58,1.65-2.53-.48-6.57-.58-6.76-1.88-3.46-4.78-3.11-7.54-6-4.49-4.69-4.44-13.56-1.74-15.08,2.27-1.28,5.93,2.94,7.34,1.74s.07-6.14-3.28-9.09c-3.64-3.2-7.16-1.63-8.51-4.06-2-3.66,5.1-8.86,3.1-13.14-1.35-2.89-6.1-3.75-8.9-4.26-5-.9-7.17.45-8.31-1-1.58-2,.15-7.67,4.06-10.83,6.39-5.15,13.59.55,20.88-4.64,4.07-2.9,6.86-8.27,5.41-10.63-1.12-1.82-4.82-1.87-7.35-1.16-5.18,1.47-7.29,6.65-8.11,6.19s1.31-6.32,3.28-10.63c2.46-5.39,3-4.89,3.09-6.38.46-6-8.5-7.05-13.33-17.59-.17-.38-2.08-4.54-4.06-9.67a20.33,20.33,0,0,0-3.48-6.57c-1.4-1.65-2.24-2-2.13-2.51.37-1.76,9.62-1.19,18.75-.58,13.15.86,17.33,1.93,19.91,2.7,4.18,1.25,6.49,1.94,9.47,3.67,5.68,3.29,6.79,6.29,10.64,6.38,3.4.08,6.47-2.17,7.73-3.09,1.49-1.09,2-1.89,5.41-4.64,3-2.4,3.76-2.78,4.25-2.51,1.12.61-.8,3.82.78,6,1.27,1.75,3.23.67,6.18,2.32,3.74,2.09,3,5.18,5.8,6,3.32,1,5.66-3.12,8.89-2.12.89.27,2.09,1,4.06,5.41,2.71,6,4.51,10.08,3.68,15.66-.22,1.46-1.38,9.21-6.58,12.56a15.27,15.27,0,0,0-4.44,3.87c-.67.88-2.42,3.21-1.74,4.25.8,1.23,4.68.17,10.05-1.35,5.88-1.66,7-2.56,8.51-1.74,2.49,1.38,1,5,4.25,7.92a9,9,0,0,0,5.8,2.13c3.9-.15,4.33-3.42,7.73-4.25,4.33-1.07,9.26,3,19.14,11.21,3.77,3.12,3.91,3.55,5.22,3.86,4.67,1.12,7.79-3.21,17.78-6.37,3.68-1.17,5.55-1.73,7.15-1,4.37,2.06,5.65,11.29,3.1,18.17-2.67,7.16-9.49,11.76-14.11,14.88-5.67,3.83-9.56,4.88-9.48,7.35.06,1.87,2.81,3.7,8.32,7.35,2.17,1.44,3.26,2.16,4.05,2.32,5,1,7.14-5.08,12.57-5.42,3.81-.23,4.13,2.65,11.41,5.8,4.49,1.95,11.07,4.8,14.88,2.13s2-8.3,6.77-11c1.89-1.08,2.37-.3,4.05-1.35,4.63-2.89,2.08-9.43,5.8-12.76,3.06-2.73,6.47.13,15.47-.77,3.4-.35,9.32-.94,14.69-4.45,8.24-5.39,8.14-13.07,15.27-14.5,3-.59,2.88.77,6.38.39,8.53-.92,10-9.07,18.56-11.6,5.56-1.64,6,1.47,12,.19C655,92.65,657.92,80.81,663.46,81.9c3.21.63,2.76,4.72,7.54,12,4.41,6.71,9.51,10.39,19.52,17.59,9.61,6.92,10,5.55,15.85,10.64s11.54,10,13.54,18c2.12,8.46-2.44,10.72.38,16.24,4,7.8,17.05,10.94,23.78,12.57C748.86,170,751.43,170.08,754,172.57Z" transform="translate(-108.58 -30.35)"/></svg>