<svg id="Ebene_1" data-name="Ebene 1" xmlns="http://www.w3.org/2000/svg" viewBox="0 0 722.4 954.1"><defs><style>.cls-1{fill:none;stroke:#1d1d1b;stroke-miterlimit:10;}</style></defs><path class="cls-1" d="M754,172.57c4.51,4.43,4.54,12.28,4.53,13.58-.07,6.11-1,6.82,0,11.76.22,1.14,1.5,4.11,4.06,10,3.38,7.82,5.1,11.71,5.54,12.31,1.58,2.15,3.12,3.6,2.84,5.68-.11.88-.61,1.59-1.62,3-2.81,3.89-4.35,4-4.87,6.23a7.88,7.88,0,0,0,.54,4.46c.77,2.29,1.78,2.9,2.3,4.19.85,2.12-.1,4.9-3.11,9.07-7.1,9.84-12.88,9.71-15,16.37a15.24,15.24,0,0,0,.27,9.61c2.06,5.47,6.1,5.3,13.53,12,7.9,7.16,7.11,10.76,13,12.85,3.88,1.38,6,.51,9.34,3,2.67,2,5.16,5.67,4.33,8.52-.46,1.56-1.48,1.42-2.17,3.25-1.13,3,1.2,4.42.54,7.44-.74,3.43-4.15,3.52-4.73,7-.22,1.31.17,1.77,1.08,5,1.93,6.9.84,7.37,2.16,9.74,2.36,4.21,5.69,2.51,8.39,6.76,1.34,2.11,1.66,4.92,2.3,10.56.49,4.26.14,4.92.95,7,1.53,4,3.67,3.89,4.19,6.77.59,3.2-1.94,3.95-2.7,9.06-.72,4.79,1.31,5.41.13,8.39-1.57,4-5.66,4-6.76,8.12a9,9,0,0,0,.27,4.73c.41,1.74,1.49,5,9.47,14.21,2,2.28,3.1,3.45,3.52,5.55.08.4.74,4-1.35,6.63-1.5,1.88-3.07,1.63-3.52,3-.85,2.54,3.83,6.19,4.06,6.36,6.28,4.81,11.35,1.61,14.34,5.42,2.21,2.82,0,5.26,2.57,11.23a22.4,22.4,0,0,0,3.79,5.81c5.05,6.16,4.43,15.52,4.14,21.92-.16,3.55-1.85,33.82-17,38.56-3,1-8.37,1.44-11.5-1.35-2-1.79-1.61-3.61-4.6-10.42-1.89-4.31-2.83-6.47-4.46-7.84-4.65-3.92-11.4-2.44-13-2-1,.25-7.75,2-8.12,5.41-.46,4.27,9.53,6.24,9.34,10-.28,5.4-20.86,2.91-34.51,16.78-3.56,3.62-4.42,6.09-8.65,8.12-8.4,4-14.76-1-19.62,3.24-4.47,3.92-1.62,10.38-6.09,12.59-3.93,1.94-9.29-1.48-11.37,1.21-.81,1.06-.33,2-1.35,2.85-1.77,1.41-4.12-.76-6.36.13-2.84,1.12-1.32,5.46-4.19,8.66-3.78,4.2-9.75.49-13.67,4.6-3.36,3.53-1.29,8.69-3.92,9.74s-4.67-4-9.61-4.33c-4.63-.28-5.92,4-12.72,6.36-6.36,2.22-7.95-.58-12.18,1.08-10.82,4.27-9.56,26.19-15.08,26.45-2.39.11-5.16-3.89-7.11-6.69-2.42-3.51-2.52-5.59-5-6.77-1.89-.89-4.83-1.2-6.5.41-1.27,1.24-1.24,3.08-1.21,4.6,0,.81.08,4.62,2.7,6.63,1.83,1.4,3,.43,4.2,1.62,2,2-.17,5.35.94,9.47.75,2.76,2.57,4.27,6.23,7.31,6,4.95,7.73,4.14,13,8.25,3.33,2.61,9.23,7.24,8.79,12.59-.21,2.56-1.82,4.6-3.65,6.9-3.37,4.23-5.85,4.85-6.63,8.25a8.25,8.25,0,0,0,0,3.65c1.17,5.19,7.42,8.61,9.44,12.15a11.32,11.32,0,0,1,.91,2c.48,1.54.22,2.48,1.56,5.09,2.48,4.88,4.1,3.64,6.08,8,2.16,4.71,1,7.87,3.93,10.15,1.32,1,1.78.55,3.57,1.75,3.12,2.08,3.73,4.87,5,6.64,3.38,4.89,10.58.78,17.46,4.06,10.19,4.85,6.92,20.71,17.45,24.62,4.16,1.55,5.07-.78,8.79,1.08,8.35,4.17,5.73,16.83,13.13,19.89,4.56,1.9,6.14-1.63,12,.14,5.06,1.52,8.77,7.27,16,18.7,4.09,6.49,6.14,9.8,6.61,12.66,1.36,8.38-2.46,19.18-9.15,21.35-7.54,2.46-14-7.68-19-4.8-4.82,2.73-.07,12.08-6,23.07-3.52,6.58-8.91,10.11-14,13.46-10.52,6.89-14.64,4.58-24.62,11.15-6.53,4.31-14,9.23-14.22,15.77-.37,11,20.25,15.21,20,27.11-.16,7.67-8.86,12.52-6.73,16.15,1.79,3,8-.13,12.31,3.08,7.89,5.83,3.57,28.17-1.92,29-4.13.65-9.4-10.75-22.69-22.88-1.46-1.33-3.78-3.37-6.54-3.07-4.18.44-4.64,5.75-9.81,7.49-3.92,1.33-7.87-.31-10.38-1.34-5.24-2.16-5.1-4.57-9.81-6.54-4.05-1.7-10.7-2.66-13.46.39-3,3.36,1.48,8.49-1.15,12.11-2.38,3.26-8.18,2-24,.58-17.16-1.53-22-1.07-24,1.92-2.18,3.19.45,6.82-2.11,9.23-3.15,3-8-1.63-13.27.77-6.67,3.05-5.75,13.69-10.77,14.42-2.75.4-3.4-2.76-7.69-3.27-5-.6-6.35,3.48-11.54,3.65-5.54.18-11.73-4.24-13.46-9.42-1.46-4.36.8-7.61-1-8.84-2.33-1.64-6.23,4.07-11.92,3.26-5.27-.74-7.55-6.43-10.19-5.38-2.05.82-1.16,4.43-3.46,5.58-3,1.49-6.74-3.5-9.23-2.31s-.14,6.59-1.54,12.88c-2.47,11.06-14.9,18.86-17.84,17-.58-.37-.85-1.55-1.39-3.92-1-4.23-.34-6.15-1.34-6.54-1.84-.72-3.68,3.33-6.54,2.88s-4.21-4.73-4.42-5.38c-1-3.16.13-4.24-.39-7.11a13.31,13.31,0,0,0-8.46-9.62c-4.91-1.58-7.84,1.75-11.34-.57-2.65-1.76-2.13-4.42-4.43-5.2-3-1-5,3-8.65,3.66-6.18,1.07-8.64-8.94-18.46-14.42-9.22-5.15-21.91-4.62-30.76-1.54-7.68,2.67-12.47,7.25-16,5s-2.23-9.06-5.19-9.81c-2.41-.61-4.26,3.63-6.73,3.08-3-.67-1.72-7.16-5.39-10.19-5.57-4.61-20.53.41-21.92,7.3-.46,2.29.47,5.33,2.31,6.16,2.6,1.16,5.18-2.91,8.27-1.93,2.7.86,4.65,5.23,3.46,7.89-1.49,3.31-7.49,3.16-10.77,3.07-7.19-.18-8.32-2.85-14.42-3.46-3.09-.31-3,.36-17.5,3.85-10.47,2.52-14.77,3.2-17.69.77-2-1.65-1.58-3.25-3.27-3.85-4.64-1.66-10,9.6-15,8.35-2.2-.56-1.93-2.93-6.73-11.43-3.77-6.66-4.73-6.57-5.58-9.61-1.61-5.78.39-11,2.12-15.57,3.45-9.09,7.31-10.27,8.26-17.89a33.51,33.51,0,0,0-.19-7.88c-1-10.54-3.85-12.05-2.88-16.54,1.26-5.82,6.41-4.69,10.76-12.3,3-5.24.87-6.31,4-17.5,2.51-8.86,4.21-9.47,5.19-16.15,1.11-7.54-.82-8.3.2-13.27,1.35-6.66,5.59-9.06,17.2-20.34,15.89-15.45,15.91-18.68,15.71-20.15-.87-6.4-10.26-11.52-17.48-12.61-5.43-.82-8.06.88-17.27.22-5.13-.37-7.6-.47-10.4-1.55-2.32-.89-7.28-2.8-9.3-7.3-1.74-3.91.23-6.4-1.32-7.75-2.85-2.49-9,6.27-18.37,6.2-5.9,0-12.49-3.72-25.68-11.07-1.35-.75-4.21-2.32-6.86-1.33-3,1.14-2.75,4.5-4.77,5-3.59.87-8.47-8.71-15.37-22.24a16.52,16.52,0,0,1-1.62-4.49c-.75-3.68.37-4.86-.15-6.58-1.41-4.62-11.46-2.24-15.94-7.53-3.84-4.53-1.78-12.16-.89-15.49,3.77-13.94,15.35-17.18,13.95-23.46-1.21-5.44-10-3.64-18.15-12-7.3-7.49-8.2-17.64-8.85-24.35-.84-8.54-1.48-15.06,2.57-20.14,4.24-5.32,9.59-4,14.41-11.21a24,24,0,0,0,3.62-9.13c.59-3.39,1.19-6.86-.44-9.84-3.15-5.77-11.4-3.7-13.53-8.7-1.48-3.48,2.1-5.23,1.94-10.36-.27-9.13-11.79-10.63-12.85-19.48-.91-7.68,7.2-11,4.92-18.49a15,15,0,0,0-5.8-7.73c-4-2.65-7.52-1.9-8.94-4.64a6.17,6.17,0,0,1,0-4.83c1.68-4.19,6.52-3,11.06-7.69a18.46,18.46,0,0,0,4.64-9.32c.78-3.81-.29-4.56.2-7.35,1.2-6.86,8.46-6.95,12.18-13.92,3-5.67,1.59-11.95.09-18.54a51.62,51.62,0,0,0-7-16.25c-3.41-5.26-5.26-6.05-7.16-10.83-.71-1.8-3.79-9.75-.77-12.95,2.79-3,9.75.82,11.6-2.13.71-1.13-.07-2,.9-3.53,1.12-1.74,3.7-3,5.48-2.26,2,.77,1.2,3.28,3.48,6.18s6.39,5,9.28,3.87c2.34-.89,2.12-3.29,4.83-4.26a8,8,0,0,1,5.41.39c7.82,2.61,22.1-1.42,27.06-9.47.81-1.31,2.44-4,1.55-6.38-1.54-4.16-8.8-3.06-9.86-6.57-.6-2,1.1-4.44,4.64-7.93,11.18-11,17.4-9.72,22.43-17.59a24.29,24.29,0,0,0,3.47-14.88c-.45-4.1-2.42-11-6.37-11.8-3.15-.63-4.38,3-8.7,3.68-6.66,1-14.18-7.14-13.15-11.21.44-1.75,2.17-1.74,3.14-4.47.85-2.43-.09-3.59.73-6a8.24,8.24,0,0,1,3.28-4.26c6.26-3.93,14.46,5.38,19.72,2.52,4.7-2.56.21-11.11,4.83-24.55,3.88-11.27,8.82-10.45,9.67-18.95.93-9.36-4.93-16.51-.77-21.45,1.47-1.76,2.83-1.62,4.33-4,1.75-2.78,2.63-7.33.89-10.69-3.14-6-12.12-3-15.43-9-.49-.88-.36-1.05-.23-11.28.1-8.52,0-11,1.54-11.79,2.42-1.22,6,3.34,8.12,1.93,1.62-1.07,1-4.66,1-5-.52-3.12-2.37-3.65-2.51-5.41-.32-3.82,7.75-9,16-10,3.45-.45,6.88,0,13.73,1,7,1,8.09,1.8,12,1.36,1.27-.15,4.2-.87,10.05-2.32,4.89-1.21,5-1.3,6.38-1.55,5.72-1,9.27-1.66,11.21.2s-.14,4.28,2.13,9.08c.21.44.27.5,4.25,6.19,2.2,3.13,3.29,4.71,3.1,5.6-.48,2.17-3.72,1.79-6.38,5-.32.39-2.69,3.33-2.13,5.8,1.26,5.52,17,7.56,18.94,3.86,1-1.9-2-4.51-4.44-13.91-.7-2.75-.73-3.66-.19-4.26,1.3-1.45,4.93.08,15.27,2.32,3.22.7,5.75,1.18,6.57,0,.61-.87.13-2.42-.39-4.06a16.58,16.58,0,0,0-1.54-3.48c-1.94-3.2-1.44-8.27-1.16-11,.78-7.85,5.84-21.52,12.37-21.65,3.05,0,3.25,2.91,8.89,5.8,6.53,3.35,15.63,4.19,18,.58,1.65-2.53-.48-6.57-.58-6.76-2-3.7-5.31-2.76-7.54-6-2.43-3.52-1.29-8.51-.44-12.2,1.4-6.11,3.93-8,2.76-10.23-1.57-3-6.91-1.18-8.51-4.06-2-3.64,5.19-9.17,3.1-13.14-1.08-2-3.93-.73-7-3.61-1.5-1.41-3.5-4-2.77-6,.19-.53.49-.76,3.28-2.87,1.9-1.44,2.86-2.16,3-2.3,2.74-2.23,4.27-3.13,5.6-4.84.88-1.14,3.88-5.34,3.16-10.27-.39-2.69-1.48-2.81-2.35-6-1.22-4.48.32-6.33,0-9.59-.68-6.92-8.44-7.29-12.23-15.37-2.21-4.7-3.18-12.24.38-16.43,4.75-5.58,15.81-3.14,24.76-1.16,5.87,1.3,9.3,2.06,13.32,4.63,5,3.18,6.56,6.29,10.64,6.38,3.4.08,6.47-2.17,7.73-3.09,1.49-1.09,2-1.89,5.41-4.64,3-2.4,3.76-2.78,4.25-2.51,1.12.61-.8,3.82.78,6,1.27,1.75,3.23.67,6.18,2.32,3.74,2.09,3,5.18,5.8,6,3.32,1,5.66-3.12,8.89-2.12.89.27,2.09,1,4.06,5.41,2.71,6,4.51,10.08,3.68,15.66-.22,1.46-1.38,9.21-6.58,12.56a15.27,15.27,0,0,0-4.44,3.87c-.67.88-2.42,3.21-1.74,4.25.8,1.23,4.68.17,10.05-1.35,5.88-1.66,7-2.56,8.51-1.74,2.49,1.38,1,5,4.25,7.92a9,9,0,0,0,5.8,2.13c3.9-.15,4.33-3.42,7.73-4.25,5-1.23,7.71,5.85,19.14,11.21a25.51,25.51,0,0,0,6.44,2.44c11.6,2.12,18.19-8.57,23.71-5.92,4.47,2.14,5.5,11.69,3.1,18.17-2.67,7.16-9.49,11.76-14.11,14.88-5.67,3.83-9.56,4.88-9.48,7.35.06,1.87,2.81,3.7,8.32,7.35,2.17,1.44,3.26,2.16,4.05,2.32,5,1,7.14-5.08,12.57-5.42,3.81-.23,4.13,2.65,11.41,5.8,4.49,1.95,11.07,4.8,14.88,2.13s2-8.3,6.77-11c1.89-1.08,2.37-.3,4.05-1.35,4.63-2.89,2.08-9.43,5.8-12.76,3.06-2.73,6.47.13,15.47-.77,3.4-.35,9.32-.94,14.69-4.45,8.24-5.39,8.14-13.07,15.27-14.5,3-.59,2.88.77,6.38.39,8.53-.92,10-9.07,18.56-11.6,5.56-1.64,6,1.47,12,.19C655,92.65,657.92,80.81,663.46,81.9c3.21.63,2.76,4.72,7.54,12,4.41,6.71,9.51,10.39,19.52,17.59,9.61,6.92,10,5.55,15.85,10.64s11.54,10,13.54,18c2.12,8.46-2.44,10.72.38,16.24,4,7.8,17.05,10.94,23.78,12.57C748.86,170,751.43,170.08,754,172.57Z" transform="translate(-108.58 -30.42)"/></svg>