<svg id="Ebene_1" data-name="Ebene 1" xmlns="http://www.w3.org/2000/svg" viewBox="0 0 720.532 954.1"><defs><style>.cls-1{fill:none;stroke:#1d1d1b;stroke-miterlimit:10;}</style></defs><path class="cls-1" d="M753.973,172.573c4.508,4.428,4.537,12.274,4.523,13.572-.065,6.119-.963,6.829,0,11.762.223,1.139,1.5,4.112,4.059,10.012,3.386,7.82,5.106,11.709,5.548,12.313,1.572,2.148,3.114,3.6,2.841,5.683-.114.872-.619,1.585-1.623,2.976-2.809,3.889-4.351,4.041-4.871,6.224a7.953,7.953,0,0,0,.541,4.465c.766,2.289,1.782,2.9,2.3,4.195.34.847,1.024,3.374-3.112,9.065-7.947,10.935-14.189,11.032-15.442,16.484-.833,3.626,2.325,8.03,8.64,16.837,6.805,9.49,10.207,14.235,16.136,16.364,4.7,1.69,7.822.821,11.773,4.165,2.275,1.926,5.2,5.561,4.33,8.524-.455,1.559-1.472,1.418-2.165,3.248-1.136,3,1.2,4.414.541,7.441-.746,3.423-4.151,3.512-4.735,7.036-.218,1.315.178,1.771,1.082,5.006,1.93,6.9.836,7.37,2.165,9.742,2.36,4.213,5.686,2.514,8.389,6.765,1.338,2.105,1.659,4.921,2.3,10.554.485,4.261.133,4.928.947,7.035,1.533,3.966,3.667,3.891,4.194,6.765.587,3.2-1.94,3.95-2.706,9.066-.716,4.788,1.307,5.4.136,8.388-1.573,4-5.666,4.033-6.765,8.119a8.989,8.989,0,0,0,.27,4.735c.41,1.739,1.489,5.006,9.471,14.207,1.974,2.275,3.1,3.447,3.518,5.547.081.406.743,3.984-1.353,6.63-1.494,1.887-3.069,1.631-3.518,2.977-.846,2.537,3.832,6.185,4.059,6.359,6.28,4.81,11.359,1.605,14.342,5.412,2.214,2.824-.049,5.267,2.571,11.23a22.4,22.4,0,0,0,3.789,5.818c5.05,6.158,4.433,15.521,4.141,21.921-.162,3.548-1.846,33.814-17,38.559-3.022.947-8.371,1.441-11.5-1.353-2-1.789-1.616-3.608-4.6-10.418-1.892-4.316-2.837-6.474-4.465-7.847-4.644-3.918-11.4-2.437-12.989-2.03-1,.255-7.752,1.983-8.118,5.412-.457,4.271,9.532,6.244,9.336,10.013-.281,5.4-20.855,2.909-34.5,16.777-3.564,3.622-4.423,6.091-8.659,8.118-8.4,4.018-14.756-1.023-19.619,3.247-4.464,3.92-1.62,10.375-6.088,12.584-3.928,1.94-9.292-1.481-11.366,1.217-.812,1.057-.329,2.025-1.353,2.842-1.768,1.41-4.114-.753-6.359.135-2.836,1.122-1.315,5.455-4.194,8.659-3.776,4.2-9.747.487-13.666,4.6-3.359,3.525-1.293,8.689-3.924,9.741-2.611,1.045-4.67-4.029-9.606-4.329-4.629-.281-5.92,3.991-12.719,6.359-6.365,2.217-7.946-.584-12.177,1.082-10.824,4.265-9.561,26.183-15.084,26.442-2.393.113-5.163-3.885-7.105-6.687-2.429-3.505-2.527-5.592-5.007-6.766-1.884-.891-4.833-1.2-6.494.406-1.276,1.238-1.244,3.078-1.218,4.6.014.811.08,4.623,2.706,6.629,1.827,1.4,2.944.429,4.195,1.624,2.057,1.966-.169,5.349.947,9.471.744,2.751,2.571,4.27,6.224,7.307,5.951,4.947,7.736,4.14,12.989,8.253,3.332,2.609,9.238,7.234,8.794,12.583-.212,2.565-1.823,4.6-3.653,6.9-3.371,4.231-5.852,4.849-6.63,8.253a8.616,8.616,0,0,0,0,3.653c.635,3.277,2.79,5,4.861,7.308,2.252,2.507.97,1.875,6.1,9.592,5.791,8.709,6.111,7.539,7.034,10.3,1.463,4.371.908,8.062,3.923,10.148.9.624,1.091.388,2.376,1.084,3.737,2.023,4.825,5.466,6.148,7.3,3.565,4.952,10.4.7,17.454,4.059,10.192,4.853,6.925,20.712,17.454,24.626,4.158,1.545,5.073-.778,8.795,1.082,8.342,4.168,5.73,16.823,13.124,19.889,4.564,1.893,6.144-1.636,12.042.136,5.064,1.521,8.77,7.269,15.976,18.7,4.092,6.494,6.148,9.8,6.612,12.656,1.363,8.386-2.462,19.181-9.149,21.356-7.541,2.454-13.962-7.679-19.035-4.807-4.829,2.734-.075,12.088-5.961,23.074-3.524,6.577-8.915,10.106-14.037,13.46-10.517,6.885-14.633,4.578-24.611,11.152-6.532,4.3-14.011,9.231-14.229,15.767-.368,11.012,20.251,15.213,20,27.112-.164,7.667-8.867,12.516-6.73,16.151,1.783,3.033,7.964-.132,12.306,3.077,7.89,5.83,3.569,28.17-1.923,29.034-4.127.65-9.4-10.753-22.689-22.881-1.46-1.333-3.78-3.371-6.537-3.077-4.184.446-4.639,5.756-9.807,7.5-3.921,1.323-7.876-.311-10.383-1.346-5.237-2.163-5.1-4.565-9.806-6.537-4.053-1.7-10.707-2.663-13.46.384-3.037,3.362,1.48,8.5-1.154,12.114-2.377,3.265-8.177,1.988-24.035.577-17.156-1.528-21.986-1.068-24.035,1.922-2.183,3.187.453,6.821-2.115,9.23-3.145,2.951-8.034-1.629-13.267.769-6.664,3.053-5.753,13.694-10.768,14.421-2.755.4-3.4-2.757-7.691-3.269-5.039-.6-6.349,3.486-11.537,3.654-5.547.179-11.729-4.242-13.46-9.422-1.457-4.364.8-7.608-.961-8.845-2.327-1.636-6.23,4.073-11.922,3.269-5.27-.745-7.549-6.436-10.19-5.384-2.049.816-1.155,4.43-3.461,5.576-3,1.489-6.739-3.5-9.23-2.307-2.41,1.149-.134,6.59-1.538,12.882-2.466,11.057-14.9,18.86-17.838,17-.584-.37-.853-1.555-1.39-3.923-.965-4.254-.4-6.048-1.346-6.538-1.58-.816-3.978,3.738-6.86,3.168-2.263-.447-3.435-3.778-4.1-5.668-1.532-4.353-.093-5.689-1.3-9.074a13.007,13.007,0,0,0-7.544-7.654c-4.919-1.689-7.87,1.731-11.345-.577-2.648-1.758-2.121-4.418-4.422-5.191-2.961-1-4.986,3.02-8.653,3.653-6.186,1.068-8.642-8.941-18.459-14.421-9.218-5.146-21.913-4.616-30.765-1.538-7.674,2.668-12.47,7.253-15.959,5s-2.224-9.059-5.192-9.806c-2.41-.607-4.254,3.63-6.729,3.076-2.988-.669-1.714-7.159-5.384-10.191-5.57-4.6-20.534.41-21.92,7.307-.46,2.287.463,5.329,2.307,6.153,2.6,1.16,5.182-2.906,8.268-1.923,2.7.86,4.652,5.224,3.461,7.884-1.485,3.315-7.488,3.16-10.767,3.076-7.193-.185-8.322-2.851-14.422-3.461-3.094-.309-3.017.356-17.5,3.846-10.472,2.524-14.771,3.2-17.69.769-1.977-1.648-1.58-3.242-3.269-3.846-4.643-1.66-10,9.6-15,8.347-2.23-.56-1.859-3.125-6.731-11.423-3.359-5.72-4.028-5.367-5-8.014-.674-1.835-1.972-6.418,1.539-17.175,3.941-12.078,7.107-10.984,8.268-17.882,1.909-11.343-6.389-15.846-3.077-24.42,2.31-5.978,6.421-4.71,10.768-12.306,3-5.237.866-6.307,4.038-17.5,2.51-8.857,4.207-9.465,5.191-16.151,1.109-7.534-.82-8.3.193-13.267,1.356-6.658,5.589-9.059,17.2-20.346,15.9-15.451,15.914-18.677,15.715-20.142-.868-6.408-10.265-11.528-17.485-12.616-5.426-.818-8.053.877-17.265.221-5.137-.366-7.6-.471-10.4-1.549-2.317-.892-7.28-2.8-9.3-7.3-1.749-3.9.224-6.392-1.328-7.747-2.845-2.486-9.031,6.266-18.371,6.2-5.9-.043-12.49-3.718-25.675-11.067-1.35-.752-4.209-2.321-6.861-1.328-2.977,1.116-2.713,4.461-4.77,4.983-3.463.88-10.177-7.336-13.554-17.158-3.305-9.614-.8-13.149-4.743-17.118-4.859-4.889-10.886-1.763-14.782-6.563-3.844-4.737-1.719-12.4-.885-15.494,3.76-13.941,15.346-17.179,13.944-23.462-1.214-5.44-10.041-3.639-18.15-11.952-7.3-7.487-8.2-17.642-8.853-24.347-.838-8.544-1.477-15.059,2.573-20.143,4.75-5.961,9.4-4.467,14.413-11.209,3.8-5.119,6.48-13.682,3.179-18.97-3.371-5.4-10.234-2.994-13.532-8.7-2.6-4.493,1.028-7.078-.729-14.032-2.227-8.815-9.019-8.492-10.175-15.81-1.318-8.337,5.472-11.059,3.312-18.568-1.891-6.577-8.051-6.494-10.729-15.182-.61-1.979-2.158-7,.266-9.853,2.643-3.112,7.271-.43,10.585-3.462,3.154-2.886.761-6.964,2.638-12.981,2.481-7.955,8.563-6.913,12.178-13.918,5.043-9.772.37-25.673-6.959-34.795-2.09-2.6-5.009-5.438-7.152-10.826-.635-1.595-3.775-9.774-.774-12.951,2.793-2.956,9.753.817,11.6-2.127.708-1.13-.065-2.023.9-3.53,1.12-1.748,3.705-2.962,5.479-2.269,1.992.778,1.2,3.283,3.479,6.186,2.192,2.791,6.4,4.955,9.279,3.866,2.437-.919,2.353-2.782,4.833-4.253,3.781-2.242,6.958.845,13.082,1.139,8.178.392,16.023-4.465,19.393-10.224.963-1.645,2.388-4.11,1.547-6.379-1.544-4.164-8.8-3.064-9.859-6.573-.623-2.071,1.256-4.6,4.64-7.925,12.486-12.261,18.933-11.46,23.067-18.412,4.949-8.321,2.737-20.7-2.133-23.087-2.834-1.386-4.639,1.314-10.109.9-7.282-.545-14.092-7.465-13.145-11.211.44-1.742,2.168-1.733,3.134-4.47.855-2.422-.088-3.588.732-5.969a9.693,9.693,0,0,1,3.286-4.253c5.659-4.037,14.656,5.27,19.718,2.513,4.7-2.559.205-11.11,4.832-24.55,3.878-11.262,8.819-10.444,9.666-18.944.932-9.364-4.93-16.514-.774-21.457,1.475-1.754,2.838-1.619,4.334-4,1.748-2.784,2.632-7.338.886-10.689-3.139-6.022-12.119-3.059-15.43-9.018-.486-.874-.352-1.05-.228-11.28.1-8.515.014-11.022,1.546-11.791,2.417-1.212,5.985,3.342,8.119,1.933,1.621-1.07,1.027-4.664.967-5.026-.516-3.118-2.365-3.652-2.513-5.413-.322-3.824,7.752-8.98,16.044-10.052,3.454-.446,6.878.025,13.725.967,7.028.967,8.1,1.8,11.985,1.353,1.273-.145,4.2-.87,10.052-2.32,4.887-1.21,4.965-1.293,6.379-1.546,5.721-1.024,9.268-1.658,11.212.193,2.042,1.944-.146,4.286,2.126,9.086.21.443.265.5,4.253,6.185,2.2,3.131,3.289,4.714,3.093,5.606-.477,2.167-3.718,1.792-6.379,5.026-.322.391-2.69,3.334-2.126,5.8,1.262,5.521,16.983,7.565,18.944,3.867,1.007-1.9-2.044-4.515-4.446-13.918-.7-2.744-.731-3.656-.194-4.253,1.3-1.449,4.93.08,15.271,2.319,5.405,1.171,6.238.308,6.573,0,2.725-2.5-2.966-9.057-3.093-18.557-.142-10.586,6.669-21.543,12.372-21.65,3.051-.058,3.253,2.906,8.892,5.8,6.531,3.35,15.628,4.182,17.977.58,1.652-2.533-.478-6.578-.58-6.766-2-3.7-5.309-2.756-7.539-5.993-2.424-3.518-1.283-8.507-.441-12.192,1.4-6.116,3.938-7.988,2.761-10.231-1.572-3-6.907-1.181-8.5-4.06-2.019-3.637,5.191-9.168,3.093-13.144-1.076-2.039-3.926-.727-7-3.611-1.5-1.408-3.5-4.036-2.771-6.009.193-.523.487-.755,3.281-2.873,1.9-1.44,2.858-2.151,3.03-2.292,2.735-2.237,4.275-3.134,5.6-4.843.884-1.14,3.875-5.339,3.157-10.272-.391-2.684-1.477-2.81-2.351-6.029-1.216-4.479.318-6.328,0-9.587-.674-6.918-8.437-7.3-12.23-15.376-2.206-4.7-3.181-12.237.384-16.425,4.753-5.583,15.812-3.138,24.764-1.159,5.866,1.3,9.3,2.055,13.32,4.632C388.7,41,390.3,44.107,394.377,44.2c3.4.08,6.475-2.172,7.732-3.093,1.494-1.093,2.036-1.893,5.413-4.639,2.956-2.4,3.762-2.784,4.252-2.513,1.115.616-.8,3.818.774,5.993,1.268,1.749,3.23.669,6.185,2.319,3.734,2.086,3.05,5.176,5.8,5.993,3.32.986,5.653-3.124,8.892-2.127.883.272,2.087,1,4.059,5.413,2.7,6.043,4.507,10.08,3.673,15.658-.733,4.9-3.458,8.432-6.572,12.565-3.7,4.916-6.81,7.054-6.186,8.119.718,1.225,5.689-.12,10.052-1.353,5.877-1.662,7.041-2.555,8.5-1.74,2.753,1.532,1.115,5.867,4.253,7.925,2.215,1.454,5.283.745,7.809.161,3.615-.834,3.632-1.931,5.723-2.287,5.472-.931,8.328,6.147,19.137,11.212a25.275,25.275,0,0,0,6.447,2.443c11.6,2.118,18.189-8.574,23.709-5.923,4.463,2.144,5.5,11.7,3.093,18.171-2.663,7.162-9.485,11.764-14.112,14.885-5.665,3.821-9.552,4.878-9.472,7.345.061,1.873,2.811,3.7,8.312,7.346,2.177,1.444,3.265,2.165,4.06,2.32,4.956.964,7.132-5.078,12.565-5.413,3.808-.234,4.129,2.649,11.4,5.8,4.49,1.945,11.073,4.795,14.885,2.127,3.665-2.566,2-8.3,6.765-11.019,1.894-1.081,2.372-.3,4.06-1.353,4.629-2.889,2.072-9.422,5.8-12.758,3.052-2.732,6.47.127,15.465-.773,3.4-.341,9.326-.934,14.691-4.446,8.238-5.394,8.14-13.073,15.271-14.5,2.974-.595,2.878.763,6.379.386,8.526-.918,9.96-9.065,18.558-11.6,5.563-1.639,5.98,1.472,11.985.193C654.984,92.65,657.924,80.81,663.46,81.9c3.213.632,2.764,4.727,7.539,11.985,4.414,6.709,9.516,10.384,19.524,17.591,9.6,6.916,10.01,5.546,15.851,10.632,5.74,5,11.535,10.043,13.532,17.978,2.128,8.455-2.44,10.718.386,16.237,4,7.8,17.043,10.943,23.777,12.565C748.864,170.041,751.431,170.077,753.973,172.573Z" transform="translate(-110.447 -30.416)"/></svg>